<?xml version="1.0" encoding="UTF-8"?>
<!DOCTYPE svg PUBLIC "-//W3C//DTD SVG 1.1//EN" "http://www.w3.org/Graphics/SVG/1.1/DTD/svg11.dtd">
<svg xmlns="http://www.w3.org/2000/svg" version="1.1" width="242px" height="241px" style="shape-rendering:geometricPrecision; text-rendering:geometricPrecision; image-rendering:optimizeQuality; fill-rule:evenodd; clip-rule:evenodd" xmlns:xlink="http://www.w3.org/1999/xlink">
<g><path style="opacity:1" fill="#fcfdfe" d="M -0.5,-0.5 C 80.1667,-0.5 160.833,-0.5 241.5,-0.5C 241.5,79.8333 241.5,160.167 241.5,240.5C 160.833,240.5 80.1667,240.5 -0.5,240.5C -0.5,160.167 -0.5,79.8333 -0.5,-0.5 Z"/></g>
<g><path style="opacity:1" fill="#3f3e5b" d="M 116.5,12.5 C 125.839,12.3335 135.173,12.5002 144.5,13C 149.963,17.6552 151.963,23.6552 150.5,31C 150.49,35.229 149.823,39.0623 148.5,42.5C 148.666,34.8261 148.5,27.1594 148,19.5C 147.044,18.4214 146.211,17.2547 145.5,16C 136.568,14.6187 127.568,14.1187 118.5,14.5C 117.833,13.8333 117.167,13.1667 116.5,12.5 Z"/></g>
<g><path style="opacity:1" fill="#484773" d="M 116.5,12.5 C 117.167,13.1667 117.833,13.8333 118.5,14.5C 117.903,14.7352 117.57,15.2352 117.5,16C 119.489,21.6663 119.989,27.4996 119,33.5C 118.722,34.4158 118.222,35.0825 117.5,35.5C 117.674,28.4648 117.341,21.4648 116.5,14.5C 111.163,13.6642 110.33,14.9976 114,18.5C 114.167,21 114.333,23.5 114.5,26C 114.475,28.9294 113.809,31.4294 112.5,33.5C 112.805,28.2384 112.471,23.0717 111.5,18C 94.6821,10.4778 88.1821,15.6445 92,33.5C 92.4652,34.9308 93.2986,36.0975 94.5,37C 100.41,38.0083 106.077,37.5083 111.5,35.5C 111.047,36.4584 110.381,37.2917 109.5,38C 111.134,38.4935 112.801,38.6602 114.5,38.5C 107.011,39.329 99.3443,39.829 91.5,40C 90.944,40.3826 90.6107,40.8826 90.5,41.5C 88.5388,34.9131 87.8721,27.9131 88.5,20.5C 88.5441,16.9103 90.2108,14.4103 93.5,13C 101.159,12.5003 108.826,12.3336 116.5,12.5 Z"/></g>
<g><path style="opacity:1" fill="#f5f7fa" d="M 118.5,14.5 C 127.568,14.1187 136.568,14.6187 145.5,16C 146.211,17.2547 147.044,18.4214 148,19.5C 148.5,27.1594 148.666,34.8261 148.5,42.5C 147.527,42.0133 146.527,41.5133 145.5,41C 127.123,40.193 108.79,40.3597 90.5,41.5C 90.6107,40.8826 90.944,40.3826 91.5,40C 99.3443,39.829 107.011,39.329 114.5,38.5C 115.833,37.8333 116.833,36.8333 117.5,35.5C 118.222,35.0825 118.722,34.4158 119,33.5C 119.989,27.4996 119.489,21.6663 117.5,16C 117.57,15.2352 117.903,14.7352 118.5,14.5 Z"/></g>
<g><path style="opacity:1" fill="#f8f8fa" d="M 112.5,33.5 C 112.167,34.1667 111.833,34.8333 111.5,35.5C 106.077,37.5083 100.41,38.0083 94.5,37C 93.2986,36.0975 92.4652,34.9308 92,33.5C 88.1821,15.6445 94.6821,10.4778 111.5,18C 112.471,23.0717 112.805,28.2384 112.5,33.5 Z"/></g>
<g><path style="opacity:1" fill="#353574" d="M 117.5,35.5 C 116.833,36.8333 115.833,37.8333 114.5,38.5C 112.801,38.6602 111.134,38.4935 109.5,38C 110.381,37.2917 111.047,36.4584 111.5,35.5C 111.833,34.8333 112.167,34.1667 112.5,33.5C 113.809,31.4294 114.475,28.9294 114.5,26C 114.333,23.5 114.167,21 114,18.5C 110.33,14.9976 111.163,13.6642 116.5,14.5C 117.341,21.4648 117.674,28.4648 117.5,35.5 Z"/></g>
<g><path style="opacity:1" fill="#8281a7" d="M 88.5,20.5 C 87.8721,27.9131 88.5388,34.9131 90.5,41.5C 89.791,42.404 88.791,42.7373 87.5,42.5C 87.175,34.9809 87.5084,27.6476 88.5,20.5 Z"/></g>
<g><path style="opacity:1" fill="#d6fcec" d="M 148.5,42.5 C 148.833,43.1667 149.167,43.8333 149.5,44.5C 149.167,44.5 148.833,44.5 148.5,44.5C 147.18,43.0582 145.514,42.3915 143.5,42.5C 127.005,41.3384 110.338,41.1717 93.5,42C 92.0577,42.3768 91.0577,43.2101 90.5,44.5C 88.4265,45.2995 86.7598,46.6329 85.5,48.5C 85.6036,46.2972 86.2702,44.2972 87.5,42.5C 88.791,42.7373 89.791,42.404 90.5,41.5C 108.79,40.3597 127.123,40.193 145.5,41C 146.527,41.5133 147.527,42.0133 148.5,42.5 Z"/></g>
<g><path style="opacity:1" fill="#349060" d="M 143.5,42.5 C 125.741,41.9762 108.074,42.6429 90.5,44.5C 91.0577,43.2101 92.0577,42.3768 93.5,42C 110.338,41.1717 127.005,41.3384 143.5,42.5 Z"/></g>
<g><path style="opacity:1" fill="#09904c" d="M 143.5,42.5 C 145.514,42.3915 147.18,43.0582 148.5,44.5C 150.092,47.9664 150.758,51.6331 150.5,55.5C 149.167,55.5 147.833,55.5 146.5,55.5C 146.682,53.4086 146.348,51.4086 145.5,49.5C 128.167,48.1667 110.833,48.1667 93.5,49.5C 92.69,59.7867 92.19,70.12 92,80.5C 91.4115,82.8633 89.9115,83.8633 87.5,83.5C 86.7784,83.0825 86.2784,82.4158 86,81.5C 85.5002,70.8385 85.3335,60.1719 85.5,49.5C 85.5,49.1667 85.5,48.8333 85.5,48.5C 86.7598,46.6329 88.4265,45.2995 90.5,44.5C 108.074,42.6429 125.741,41.9762 143.5,42.5 Z"/></g>
<g><path style="opacity:1" fill="#edfdf6" d="M 143.5,58.5 C 142.317,57.4955 140.984,56.6622 139.5,56C 140.238,52.7647 138.738,51.2647 135,51.5C 123.185,51.3004 111.351,51.6337 99.5,52.5C 97.9983,54.252 96.9983,56.252 96.5,58.5C 98.717,63.6959 99.0503,69.0293 97.5,74.5C 97.6667,75.8333 97.8333,77.1667 98,78.5C 100.159,79.1552 101.659,80.4885 102.5,82.5C 101.833,82.5 101.167,82.5 100.5,82.5C 99.469,81.7515 98.3024,81.0848 97,80.5C 95.7142,70.8787 95.2142,61.212 95.5,51.5C 102.803,50.1691 110.47,49.5024 118.5,49.5C 126.167,49.6667 133.833,49.8333 141.5,50C 143.321,52.456 143.988,55.2893 143.5,58.5 Z"/></g>
<g><path style="opacity:1" fill="#e6fcf1" d="M 149.5,44.5 C 151.592,44.5614 153.092,45.5614 154,47.5C 156.582,51.3773 156.915,55.3773 155,59.5C 153.491,60.0897 151.991,60.7564 150.5,61.5C 151.243,62.1818 151.909,62.8485 152.5,63.5C 145.5,63.5 138.5,63.5 131.5,63.5C 131.263,64.791 131.596,65.791 132.5,66.5C 133.99,72.0332 137.657,74.0332 143.5,72.5C 143.664,75.1873 143.497,77.854 143,80.5C 141.556,82.1554 139.722,82.822 137.5,82.5C 138.234,81.2921 138.567,79.9587 138.5,78.5C 139.833,78.5 141.167,78.5 142.5,78.5C 142.5,76.8333 142.5,75.1667 142.5,73.5C 133.569,75.3392 129.569,71.6726 130.5,62.5C 136.509,62.6662 142.509,62.4995 148.5,62C 148.833,61.6667 149.167,61.3333 149.5,61C 147.026,60.9633 145.026,60.13 143.5,58.5C 146.833,58.5 150.167,58.5 153.5,58.5C 154.396,53.0849 153.063,48.4183 149.5,44.5 Z"/></g>
<g><path style="opacity:1" fill="#f7fafa" d="M 143.5,58.5 C 145.026,60.13 147.026,60.9633 149.5,61C 149.167,61.3333 148.833,61.6667 148.5,62C 142.509,62.4995 136.509,62.6662 130.5,62.5C 129.569,71.6726 133.569,75.3392 142.5,73.5C 142.5,75.1667 142.5,76.8333 142.5,78.5C 141.167,78.5 139.833,78.5 138.5,78.5C 138.567,79.9587 138.234,81.2921 137.5,82.5C 136.833,82.5 136.167,82.5 135.5,82.5C 134.385,79.1132 132.718,76.1132 130.5,73.5C 128.496,67.8216 126.496,62.1549 124.5,56.5C 121.167,56.5 117.833,56.5 114.5,56.5C 114.043,59.4056 113.043,62.0722 111.5,64.5C 108.505,70.4897 105.505,76.4897 102.5,82.5C 101.659,80.4885 100.159,79.1552 98,78.5C 97.8333,77.1667 97.6667,75.8333 97.5,74.5C 99.0503,69.0293 98.717,63.6959 96.5,58.5C 96.9983,56.252 97.9983,54.252 99.5,52.5C 111.351,51.6337 123.185,51.3004 135,51.5C 138.738,51.2647 140.238,52.7647 139.5,56C 140.984,56.6622 142.317,57.4955 143.5,58.5 Z"/></g>
<g><path style="opacity:1" fill="#218953" d="M 148.5,44.5 C 148.833,44.5 149.167,44.5 149.5,44.5C 153.063,48.4183 154.396,53.0849 153.5,58.5C 150.167,58.5 146.833,58.5 143.5,58.5C 143.988,55.2893 143.321,52.456 141.5,50C 133.833,49.8333 126.167,49.6667 118.5,49.5C 110.47,49.5024 102.803,50.1691 95.5,51.5C 94.228,61.6926 94.228,72.026 95.5,82.5C 97.1667,82.5 98.8333,82.5 100.5,82.5C 100.151,90.3984 96.8176,92.2317 90.5,88C 88.8588,86.871 87.8588,85.371 87.5,83.5C 89.9115,83.8633 91.4115,82.8633 92,80.5C 92.19,70.12 92.69,59.7867 93.5,49.5C 110.833,48.1667 128.167,48.1667 145.5,49.5C 146.348,51.4086 146.682,53.4086 146.5,55.5C 147.833,55.5 149.167,55.5 150.5,55.5C 150.758,51.6331 150.092,47.9664 148.5,44.5 Z"/></g>
<g><path style="opacity:1" fill="#3a3b73" d="M 130.5,73.5 C 128.983,73.4894 127.816,72.8228 127,71.5C 125.574,68.3107 123.908,65.3107 122,62.5C 121.282,63.4506 120.449,63.6172 119.5,63C 120.337,61.9887 120.67,60.8221 120.5,59.5C 118.833,59.5 117.167,59.5 115.5,59.5C 115.803,62.5876 114.47,64.2542 111.5,64.5C 113.043,62.0722 114.043,59.4056 114.5,56.5C 117.833,56.5 121.167,56.5 124.5,56.5C 126.496,62.1549 128.496,67.8216 130.5,73.5 Z"/></g>
<g><path style="opacity:1" fill="#cdfbe8" d="M 95.5,51.5 C 95.2142,61.212 95.7142,70.8787 97,80.5C 98.3024,81.0848 99.469,81.7515 100.5,82.5C 98.8333,82.5 97.1667,82.5 95.5,82.5C 94.228,72.026 94.228,61.6926 95.5,51.5 Z"/></g>
<g><path style="opacity:1" fill="#8fd4af" d="M 152.5,63.5 C 153.167,63.5 153.5,63.8333 153.5,64.5C 146.087,63.8721 139.087,64.5388 132.5,66.5C 131.596,65.791 131.263,64.791 131.5,63.5C 138.5,63.5 145.5,63.5 152.5,63.5 Z"/></g>
<g><path style="opacity:1" fill="#a5a1c0" d="M 159.5,59.5 C 159.56,58.9569 159.893,58.6236 160.5,58.5C 161.817,64.9883 161.817,71.3217 160.5,77.5C 160.823,71.31 160.49,65.31 159.5,59.5 Z"/></g>
<g><path style="opacity:1" fill="#258c55" d="M 153.5,64.5 C 153.5,69.8333 153.5,75.1667 153.5,80.5C 151.368,85.2916 147.702,88.2916 142.5,89.5C 139.147,88.488 137.481,86.1547 137.5,82.5C 139.722,82.822 141.556,82.1554 143,80.5C 143.497,77.854 143.664,75.1873 143.5,72.5C 137.657,74.0332 133.99,72.0332 132.5,66.5C 139.087,64.5388 146.087,63.8721 153.5,64.5 Z"/></g>
<g><path style="opacity:1" fill="#05914c" d="M 134.5,66.5 C 140.093,66.1934 145.593,66.5268 151,67.5C 151.667,71.8333 151.667,76.1667 151,80.5C 149.111,81.0974 147.278,81.4307 145.5,81.5C 144.509,77.5546 144.176,73.5546 144.5,69.5C 141.482,69.6646 138.482,69.498 135.5,69C 134.748,68.3292 134.414,67.4959 134.5,66.5 Z"/></g>
<g><path style="opacity:1" fill="#313376" d="M 130.5,73.5 C 132.34,80.58 134.673,87.08 137.5,93C 135.091,91.5123 132.425,90.0123 129.5,88.5C 130.854,84.9104 129.521,83.2437 125.5,83.5C 125.246,79.0613 124.412,74.728 123,70.5C 121.43,69.6422 119.763,68.9755 118,68.5C 116.041,70.8423 114.541,73.509 113.5,76.5C 112.186,77.3128 111.019,78.3128 110,79.5C 109.667,79.1667 109.333,78.8333 109,78.5C 109.505,73.8045 110.339,69.1378 111.5,64.5C 114.47,64.2542 115.803,62.5876 115.5,59.5C 117.167,59.5 118.833,59.5 120.5,59.5C 120.67,60.8221 120.337,61.9887 119.5,63C 120.449,63.6172 121.282,63.4506 122,62.5C 123.908,65.3107 125.574,68.3107 127,71.5C 127.816,72.8228 128.983,73.4894 130.5,73.5 Z"/></g>
<g><path style="opacity:1" fill="#37386f" d="M 111.5,64.5 C 110.339,69.1378 109.505,73.8045 109,78.5C 109.333,78.8333 109.667,79.1667 110,79.5C 111.019,78.3128 112.186,77.3128 113.5,76.5C 114.541,73.509 116.041,70.8423 118,68.5C 119.763,68.9755 121.43,69.6422 123,70.5C 124.412,74.728 125.246,79.0613 125.5,83.5C 124.159,79.1574 121.992,75.1574 119,71.5C 113.32,82.1972 108.153,93.1972 103.5,104.5C 99.5,105.833 95.5,105.833 91.5,104.5C 90.0499,103.15 89.3832,101.484 89.5,99.5C 91.7353,100.229 93.5686,101.562 95,103.5C 96.8822,104.606 98.7156,104.606 100.5,103.5C 103.848,100.655 105.348,96.9883 105,92.5C 106.442,89.9504 107.608,87.2837 108.5,84.5C 107.5,83.1667 106.5,83.1667 105.5,84.5C 103.97,86.2262 102.97,88.2262 102.5,90.5C 101.423,91.7051 100.09,92.3718 98.5,92.5C 100.391,89.3858 101.724,86.0525 102.5,82.5C 105.505,76.4897 108.505,70.4897 111.5,64.5 Z"/></g>
<g><path style="opacity:1" fill="#3b3d6e" d="M 84.5,79.5 C 84.7312,83.2927 86.0645,86.6261 88.5,89.5C 86.9256,89.0629 85.7589,88.0629 85,86.5C 83.9614,87.2438 83.4614,88.2438 83.5,89.5C 77.6669,80.1243 75.8336,69.791 78,58.5C 82.5922,64.8572 84.7588,71.8572 84.5,79.5 Z"/></g>
<g><path style="opacity:1" fill="#96c3be" d="M 85.5,49.5 C 85.3335,60.1719 85.5002,70.8385 86,81.5C 86.2784,82.4158 86.7784,83.0825 87.5,83.5C 87.8588,85.371 88.8588,86.871 90.5,88C 96.8176,92.2317 100.151,90.3984 100.5,82.5C 101.167,82.5 101.833,82.5 102.5,82.5C 101.724,86.0525 100.391,89.3858 98.5,92.5C 98.44,93.0431 98.1067,93.3764 97.5,93.5C 94.8434,91.3923 91.8434,90.059 88.5,89.5C 86.0645,86.6261 84.7312,83.2927 84.5,79.5C 84.1726,69.3194 84.506,59.3194 85.5,49.5 Z"/></g>
<g><path style="opacity:1" fill="#3a3c6f" d="M 159.5,59.5 C 160.49,65.31 160.823,71.31 160.5,77.5C 156.826,84.8482 153.159,92.1815 149.5,99.5C 149.167,99.5 148.833,99.5 148.5,99.5C 148.714,97.8561 148.38,96.3561 147.5,95C 151.459,95.2087 153.126,93.3754 152.5,89.5C 149.589,91.4667 146.256,92.4667 142.5,92.5C 145.047,91.0013 147.714,89.5013 150.5,88C 152.495,85.8428 153.828,83.3428 154.5,80.5C 153.289,72.6997 154.955,65.6997 159.5,59.5 Z"/></g>
<g><path style="opacity:1" fill="#aad3d3" d="M 153.5,80.5 C 153.833,80.5 154.167,80.5 154.5,80.5C 153.828,83.3428 152.495,85.8428 150.5,88C 147.714,89.5013 145.047,91.0013 142.5,92.5C 141.603,93.5981 140.77,93.5981 140,92.5C 138.017,89.3862 136.517,86.0529 135.5,82.5C 136.167,82.5 136.833,82.5 137.5,82.5C 137.481,86.1547 139.147,88.488 142.5,89.5C 147.702,88.2916 151.368,85.2916 153.5,80.5 Z"/></g>
<g><path style="opacity:1" fill="#353672" d="M 130.5,73.5 C 132.718,76.1132 134.385,79.1132 135.5,82.5C 136.517,86.0529 138.017,89.3862 140,92.5C 140.77,93.5981 141.603,93.5981 142.5,92.5C 146.256,92.4667 149.589,91.4667 152.5,89.5C 153.126,93.3754 151.459,95.2087 147.5,95C 148.38,96.3561 148.714,97.8561 148.5,99.5C 148.123,101.258 147.456,102.925 146.5,104.5C 142.454,105.765 138.454,105.765 134.5,104.5C 134.5,104.167 134.5,103.833 134.5,103.5C 131.495,96.8305 128.495,90.1638 125.5,83.5C 129.521,83.2437 130.854,84.9104 129.5,88.5C 132.425,90.0123 135.091,91.5123 137.5,93C 134.673,87.08 132.34,80.58 130.5,73.5 Z"/></g>
<g><path style="opacity:1" fill="#333373" d="M 89.5,99.5 C 89.1667,98.5 88.5,97.8333 87.5,97.5C 86.6743,94.5152 85.341,91.8485 83.5,89.5C 83.4614,88.2438 83.9614,87.2438 85,86.5C 85.7589,88.0629 86.9256,89.0629 88.5,89.5C 91.8434,90.059 94.8434,91.3923 97.5,93.5C 98.1067,93.3764 98.44,93.0431 98.5,92.5C 100.09,92.3718 101.423,91.7051 102.5,90.5C 102.97,88.2262 103.97,86.2262 105.5,84.5C 106.5,83.1667 107.5,83.1667 108.5,84.5C 107.608,87.2837 106.442,89.9504 105,92.5C 105.348,96.9883 103.848,100.655 100.5,103.5C 98.7156,104.606 96.8822,104.606 95,103.5C 93.5686,101.562 91.7353,100.229 89.5,99.5 Z"/></g>
<g><path style="opacity:1" fill="#abaac9" d="M 148.5,99.5 C 148.833,99.5 149.167,99.5 149.5,99.5C 149.557,100.609 149.89,101.609 150.5,102.5C 149.883,102.611 149.383,102.944 149,103.5C 148.824,107.688 148.324,111.688 147.5,115.5C 147.5,112.5 147.5,109.5 147.5,106.5C 142.706,107.097 138.373,106.43 134.5,104.5C 138.454,105.765 142.454,105.765 146.5,104.5C 147.456,102.925 148.123,101.258 148.5,99.5 Z"/></g>
<g><path style="opacity:1" fill="#8683a0" d="M 87.5,102.5 C 88.5,102.833 89.1667,103.5 89.5,104.5C 88.5184,107.962 88.185,111.629 88.5,115.5C 87.5151,111.366 87.1818,107.032 87.5,102.5 Z"/></g>
<g><path style="opacity:1" fill="#ececf6" d="M 125.5,83.5 C 128.495,90.1638 131.495,96.8305 134.5,103.5C 133.883,103.389 133.383,103.056 133,102.5C 132.066,103.858 131.232,105.192 130.5,106.5C 130.335,110.182 130.501,113.848 131,117.5C 132.693,118.184 134.193,119.184 135.5,120.5C 138.417,119.934 141.417,119.934 144.5,120.5C 136.684,121.492 128.684,121.826 120.5,121.5C 120.5,110.167 120.5,98.8333 120.5,87.5C 120.5,86.5 120.5,85.5 120.5,84.5C 119.5,84.5 118.5,84.5 117.5,84.5C 118.438,96.4625 118.772,108.462 118.5,120.5C 118.5,120.833 118.5,121.167 118.5,121.5C 112.5,121.5 106.5,121.5 100.5,121.5C 100.082,120.778 99.4158,120.278 98.5,120C 103.904,119.679 106.404,116.845 106,111.5C 105.667,112.5 105.333,113.5 105,114.5C 104.825,111.843 104.992,109.176 105.5,106.5C 99.8293,105.765 94.8293,107.098 90.5,110.5C 90.6747,108.379 90.3414,106.379 89.5,104.5C 89.1667,103.5 88.5,102.833 87.5,102.5C 88.562,100.901 88.562,99.2341 87.5,97.5C 88.5,97.8333 89.1667,98.5 89.5,99.5C 89.3832,101.484 90.0499,103.15 91.5,104.5C 95.5,105.833 99.5,105.833 103.5,104.5C 108.153,93.1972 113.32,82.1972 119,71.5C 121.992,75.1574 124.159,79.1574 125.5,83.5 Z"/></g>
<g><path style="opacity:1" fill="#5e5b74" d="M 111.5,92.5 C 112.833,92.5 114.167,92.5 115.5,92.5C 114.825,99.4755 114.325,106.476 114,113.5C 111.418,115.228 109.918,117.561 109.5,120.5C 106.664,120.798 106.164,120.131 108,118.5C 108.609,113.139 108.442,107.805 107.5,102.5C 108.833,102.5 110.167,102.5 111.5,102.5C 112.508,114.761 112.508,111.428 111.5,92.5 Z"/></g>
<g><path style="opacity:1" fill="#3b394f" d="M 120.5,87.5 C 119.833,98.5 119.167,109.5 118.5,120.5C 118.772,108.462 118.438,96.4625 117.5,84.5C 118.5,84.5 119.5,84.5 120.5,84.5C 120.5,85.5 120.5,86.5 120.5,87.5 Z"/></g>
<g><path style="opacity:1" fill="#aaa9b9" d="M 120.5,87.5 C 120.5,98.8333 120.5,110.167 120.5,121.5C 119.833,121.5 119.167,121.5 118.5,121.5C 118.5,121.167 118.5,120.833 118.5,120.5C 119.167,109.5 119.833,98.5 120.5,87.5 Z"/></g>
<g><path style="opacity:1" fill="#f8f8fb" d="M 134.5,103.5 C 134.5,103.833 134.5,104.167 134.5,104.5C 138.373,106.43 142.706,107.097 147.5,106.5C 147.5,109.5 147.5,112.5 147.5,115.5C 147.25,117.674 146.25,119.341 144.5,120.5C 141.417,119.934 138.417,119.934 135.5,120.5C 134.193,119.184 132.693,118.184 131,117.5C 130.501,113.848 130.335,110.182 130.5,106.5C 131.232,105.192 132.066,103.858 133,102.5C 133.383,103.056 133.883,103.389 134.5,103.5 Z"/></g>
<g><path style="opacity:1" fill="#403d5d" d="M 130.5,106.5 C 129.355,110.311 129.188,114.311 130,118.5C 131.836,120.131 131.336,120.798 128.5,120.5C 128.431,117.916 127.265,115.916 125,114.5C 124.721,107.467 124.221,100.467 123.5,93.5C 124.5,93.5 125.5,93.5 126.5,93.5C 125.454,100.13 125.287,106.797 126,113.5C 126.667,114.167 127.333,114.833 128,115.5C 128.534,111.141 128.368,106.808 127.5,102.5C 128.5,102.5 129.5,102.5 130.5,102.5C 130.5,103.833 130.5,105.167 130.5,106.5 Z"/></g>
<g><path style="opacity:1" fill="#524d70" d="M 150.5,102.5 C 150.851,108.262 150.351,113.928 149,119.5C 147.442,121.359 145.609,122.859 143.5,124C 127.5,124.667 111.5,124.667 95.5,124C 91.3824,122.58 89.0491,119.747 88.5,115.5C 88.185,111.629 88.5184,107.962 89.5,104.5C 90.3414,106.379 90.6747,108.379 90.5,110.5C 89.076,118.703 92.4093,122.37 100.5,121.5C 106.5,121.5 112.5,121.5 118.5,121.5C 119.167,121.5 119.833,121.5 120.5,121.5C 128.684,121.826 136.684,121.492 144.5,120.5C 146.25,119.341 147.25,117.674 147.5,115.5C 148.324,111.688 148.824,107.688 149,103.5C 149.383,102.944 149.883,102.611 150.5,102.5 Z"/></g>
<g><path style="opacity:1" fill="#f7f9fa" d="M 100.5,121.5 C 92.4093,122.37 89.076,118.703 90.5,110.5C 94.8293,107.098 99.8293,105.765 105.5,106.5C 104.992,109.176 104.825,111.843 105,114.5C 105.333,113.5 105.667,112.5 106,111.5C 106.404,116.845 103.904,119.679 98.5,120C 99.4158,120.278 100.082,120.778 100.5,121.5 Z"/></g>
<g><path style="opacity:1" fill="#7ba189" d="M 204.5,128.5 C 196.381,130.4 194.715,134.733 199.5,141.5C 197.589,141.426 196.422,140.426 196,138.5C 195.366,135.445 195.532,132.445 196.5,129.5C 199.175,127.811 201.842,127.477 204.5,128.5 Z"/></g>
<g><path style="opacity:1" fill="#5d8e74" d="M 117.5,136.5 C 115.389,135.258 113.389,135.258 111.5,136.5C 110.624,136.631 109.957,136.298 109.5,135.5C 111.867,133.605 114.534,133.105 117.5,134C 118.774,134.977 118.774,135.811 117.5,136.5 Z"/></g>
<g><path style="opacity:1" fill="#d4f3e0" d="M 204.5,128.5 C 210.01,131.695 210.676,135.695 206.5,140.5C 204.253,141.374 201.92,141.708 199.5,141.5C 194.715,134.733 196.381,130.4 204.5,128.5 Z"/></g>
<g><path style="opacity:1" fill="#68977c" d="M 199.5,131.5 C 200.404,132.209 200.737,133.209 200.5,134.5C 201.833,134.5 203.167,134.5 204.5,134.5C 204.351,133.448 204.517,132.448 205,131.5C 205.72,133.112 205.554,134.612 204.5,136C 206.26,136.965 206.594,138.132 205.5,139.5C 204.281,138.737 203.281,137.737 202.5,136.5C 201.833,137.5 201.167,138.5 200.5,139.5C 199.52,136.914 199.187,134.247 199.5,131.5 Z"/></g>
<g><path style="opacity:1" fill="#8ac0a1" d="M 39.5,137.5 C 43.6344,136.515 47.9677,136.182 52.5,136.5C 52.7373,137.791 52.404,138.791 51.5,139.5C 47.9707,137.577 43.9707,136.911 39.5,137.5 Z"/></g>
<g><path style="opacity:1" fill="#d1f3df" d="M 153.5,133.5 C 155.074,135.102 155.741,137.102 155.5,139.5C 159.884,139.174 164.217,139.508 168.5,140.5C 169.127,141.417 169.461,142.417 169.5,143.5C 164.495,140.943 159.495,140.943 154.5,143.5C 153.516,140.572 153.183,137.572 153.5,134.5C 153.5,134.167 153.5,133.833 153.5,133.5 Z"/></g>
<g><path style="opacity:1" fill="#789683" d="M 204.5,128.5 C 210.098,129.507 211.931,132.841 210,138.5C 209.31,140.35 208.144,141.684 206.5,142.5C 203.941,142.802 201.607,142.468 199.5,141.5C 201.92,141.708 204.253,141.374 206.5,140.5C 210.676,135.695 210.01,131.695 204.5,128.5 Z"/></g>
<g><path style="opacity:1" fill="#8cceab" d="M 139.5,141.5 C 135.543,141.008 131.877,141.675 128.5,143.5C 127.893,143.376 127.56,143.043 127.5,142.5C 131.388,140.311 135.388,139.977 139.5,141.5 Z"/></g>
<g><path style="opacity:1" fill="#dbfdeb" d="M 117.5,141.5 C 118.167,149.01 118.833,156.677 119.5,164.5C 120.167,156.677 120.833,149.01 121.5,141.5C 121.5,149.833 121.5,158.167 121.5,166.5C 120.167,166.5 118.833,166.5 117.5,166.5C 117.5,158.167 117.5,149.833 117.5,141.5 Z"/></g>
<g><path style="opacity:1" fill="#1c8b50" d="M 121.5,141.5 C 123.735,141.205 125.735,141.539 127.5,142.5C 127.56,143.043 127.893,143.376 128.5,143.5C 131.877,141.675 135.543,141.008 139.5,141.5C 140.688,142.364 141.855,143.364 143,144.5C 143.5,152.159 143.666,159.826 143.5,167.5C 141.265,167.795 139.265,167.461 137.5,166.5C 137.5,160.167 137.5,153.833 137.5,147.5C 134.038,146.518 130.371,146.185 126.5,146.5C 126.5,153.167 126.5,159.833 126.5,166.5C 124.833,166.5 123.167,166.5 121.5,166.5C 121.5,158.167 121.5,149.833 121.5,141.5 Z"/></g>
<g><path style="opacity:1" fill="#d3f3e3" d="M 47.5,143.5 C 45.0521,144.473 42.3854,144.806 39.5,144.5C 39.3342,149.179 39.5008,153.845 40,158.5C 44.4099,158.943 48.5766,159.943 52.5,161.5C 48.1667,161.5 43.8333,161.5 39.5,161.5C 39.1667,160.833 38.8333,160.167 38.5,159.5C 38.5,154.167 38.5,148.833 38.5,143.5C 41.5,143.5 44.5,143.5 47.5,143.5 Z"/></g>
<g><path style="opacity:1" fill="#d0f3df" d="M 58.5,147.5 C 63.5,147.5 68.5,147.5 73.5,147.5C 73.5,152.167 73.5,156.833 73.5,161.5C 69.8333,161.5 66.1667,161.5 62.5,161.5C 62.5,160.167 62.5,158.833 62.5,157.5C 65.5,157.5 68.5,157.5 71.5,157.5C 71.1667,155.5 70.8333,153.5 70.5,151.5C 67.5,151.5 64.5,151.5 61.5,151.5C 62.9488,149.836 64.9488,149.002 67.5,149C 64.3054,148.819 61.3054,148.319 58.5,147.5 Z"/></g>
<g><path style="opacity:1" fill="#14894d" d="M 116.5,141.5 C 116.5,149.833 116.5,158.167 116.5,166.5C 114.833,166.5 113.167,166.5 111.5,166.5C 111.5,165.833 111.5,165.167 111.5,164.5C 111.5,156.833 111.5,149.167 111.5,141.5C 113.167,141.5 114.833,141.5 116.5,141.5 Z"/></g>
<g><path style="opacity:1" fill="#e4faee" d="M 117.5,136.5 C 117.5,138.167 117.5,139.833 117.5,141.5C 117.167,141.5 116.833,141.5 116.5,141.5C 114.833,141.5 113.167,141.5 111.5,141.5C 111.5,149.167 111.5,156.833 111.5,164.5C 110.167,164.5 108.833,164.5 107.5,164.5C 107.825,157.313 107.491,150.313 106.5,143.5C 101.153,140.942 95.8193,140.942 90.5,143.5C 89.7025,143.043 89.3691,142.376 89.5,141.5C 87.7354,140.539 85.7354,140.205 83.5,140.5C 83.5,153.5 83.5,166.5 83.5,179.5C 84.9179,181.308 86.9179,181.975 89.5,181.5C 89.0919,182.643 88.4252,183.643 87.5,184.5C 85.9291,183.691 84.2624,183.357 82.5,183.5C 81.7279,179.548 81.3946,175.548 81.5,171.5C 81.5,171.167 81.5,170.833 81.5,170.5C 80.1286,169.213 78.2953,168.547 76,168.5C 70.0712,170.339 64.5712,169.672 59.5,166.5C 66.2566,166.041 72.9233,166.041 79.5,166.5C 79.6663,159.159 79.4997,151.826 79,144.5C 77.8549,143.364 76.6883,142.364 75.5,141.5C 70.3595,140.512 65.0262,140.179 59.5,140.5C 59.5,141.5 59.5,142.5 59.5,143.5C 59.5,143.833 59.5,144.167 59.5,144.5C 58.596,145.209 58.2627,146.209 58.5,147.5C 61.3054,148.319 64.3054,148.819 67.5,149C 64.9488,149.002 62.9488,149.836 61.5,151.5C 59.6203,151.229 58.287,151.896 57.5,153.5C 57.1667,153.5 56.8333,153.5 56.5,153.5C 57.3136,148.881 57.6469,144.214 57.5,139.5C 63.1745,138.415 68.8411,138.415 74.5,139.5C 76.1349,139.122 77.6349,138.456 79,137.5C 82.8551,140.007 86.6885,140.007 90.5,137.5C 96.3112,138.882 102.145,140.215 108,141.5C 109.699,141.613 110.866,140.947 111.5,139.5C 118.167,138.833 118.167,138.167 111.5,137.5C 111.5,137.167 111.5,136.833 111.5,136.5C 113.389,135.258 115.389,135.258 117.5,136.5 Z"/></g>
<g><path style="opacity:1" fill="#82c09f" d="M 59.5,144.5 C 63.9126,146.138 68.5792,147.138 73.5,147.5C 68.5,147.5 63.5,147.5 58.5,147.5C 58.2627,146.209 58.596,145.209 59.5,144.5 Z"/></g>
<g><path style="opacity:1" fill="#94ccac" d="M 75.5,141.5 C 69.8652,140.963 64.5318,141.63 59.5,143.5C 59.5,142.5 59.5,141.5 59.5,140.5C 65.0262,140.179 70.3595,140.512 75.5,141.5 Z"/></g>
<g><path style="opacity:1" fill="#599575" d="M 111.5,137.5 C 118.167,138.167 118.167,138.833 111.5,139.5C 111.5,138.833 111.5,138.167 111.5,137.5 Z"/></g>
<g><path style="opacity:1" fill="#d2f2e0" d="M 177.5,147.5 C 182.167,147.5 186.833,147.5 191.5,147.5C 191.5,152.167 191.5,156.833 191.5,161.5C 187.833,161.5 184.167,161.5 180.5,161.5C 180.5,159.833 180.5,158.167 180.5,156.5C 183.167,156.5 185.833,156.5 188.5,156.5C 188.5,154.833 188.5,153.167 188.5,151.5C 184.069,151.231 179.735,151.564 175.5,152.5C 176.167,150.833 176.833,149.167 177.5,147.5 Z"/></g>
<g><path style="opacity:1" fill="#f1fcf6" d="M 163.5,147.5 C 163.5,153.833 163.5,160.167 163.5,166.5C 165.5,166.5 167.5,166.5 169.5,166.5C 169.833,166.5 170.167,166.5 170.5,166.5C 170.5,167.5 170.5,168.5 170.5,169.5C 167.728,169.78 165.228,169.113 163,167.5C 161.43,168.358 159.763,169.025 158,169.5C 156.826,168.456 155.659,167.456 154.5,166.5C 154.5,160.167 154.5,153.833 154.5,147.5C 157.5,147.5 160.5,147.5 163.5,147.5 Z"/></g>
<g><path style="opacity:1" fill="#3e9265" d="M 61.5,151.5 C 64.5,151.5 67.5,151.5 70.5,151.5C 70.8333,153.5 71.1667,155.5 71.5,157.5C 68.5,157.5 65.5,157.5 62.5,157.5C 63.9179,155.692 65.9179,155.025 68.5,155.5C 68.5,154.5 68.5,153.5 68.5,152.5C 64.7657,152.323 61.0991,152.656 57.5,153.5C 58.287,151.896 59.6203,151.229 61.5,151.5 Z"/></g>
<g><path style="opacity:1" fill="#5baa7e" d="M 89.5,141.5 C 87.8333,141.5 86.1667,141.5 84.5,141.5C 84.8287,154.344 84.4954,167.011 83.5,179.5C 83.5,166.5 83.5,153.5 83.5,140.5C 85.7354,140.205 87.7354,140.539 89.5,141.5 Z"/></g>
<g><path style="opacity:1" fill="#61ab84" d="M 116.5,141.5 C 116.833,141.5 117.167,141.5 117.5,141.5C 117.5,149.833 117.5,158.167 117.5,166.5C 115.5,167.833 113.5,167.833 111.5,166.5C 113.167,166.5 114.833,166.5 116.5,166.5C 116.5,158.167 116.5,149.833 116.5,141.5 Z"/></g>
<g><path style="opacity:1" fill="#64af85" d="M 147.5,133.5 C 149.5,133.5 151.5,133.5 153.5,133.5C 153.5,133.833 153.5,134.167 153.5,134.5C 151.833,134.5 150.167,134.5 148.5,134.5C 148.5,145.167 148.5,155.833 148.5,166.5C 150.167,166.5 151.833,166.5 153.5,166.5C 151.5,167.833 149.5,167.833 147.5,166.5C 147.5,155.5 147.5,144.5 147.5,133.5 Z"/></g>
<g><path style="opacity:1" fill="#1f8b52" d="M 191.5,166.5 C 186.749,166.359 181.749,166.359 176.5,166.5C 174.72,162.404 174.054,158.071 174.5,153.5C 175.167,153.5 175.5,153.167 175.5,152.5C 179.735,151.564 184.069,151.231 188.5,151.5C 188.5,153.167 188.5,154.833 188.5,156.5C 185.833,156.5 183.167,156.5 180.5,156.5C 180.5,158.167 180.5,159.833 180.5,161.5C 184.167,161.5 187.833,161.5 191.5,161.5C 191.5,156.833 191.5,152.167 191.5,147.5C 187.03,146.514 182.363,146.181 177.5,146.5C 177.5,145.5 177.5,144.5 177.5,143.5C 179.915,142.186 182.748,141.519 186,141.5C 188.833,141.667 191.667,141.833 194.5,142C 195.025,142.692 195.692,143.192 196.5,143.5C 197.497,151.138 197.831,158.804 197.5,166.5C 195.5,166.5 193.5,166.5 191.5,166.5 Z"/></g>
<g><path style="opacity:1" fill="#ddf6e9" d="M 196.5,129.5 C 195.532,132.445 195.366,135.445 196,138.5C 196.422,140.426 197.589,141.426 199.5,141.5C 201.607,142.468 203.941,142.802 206.5,142.5C 204.393,143.468 202.059,143.802 199.5,143.5C 199.666,151.507 199.5,159.507 199,167.5C 197.769,168.108 196.436,168.441 195,168.5C 193.319,168.392 192.152,167.725 191.5,166.5C 193.5,166.5 195.5,166.5 197.5,166.5C 197.831,158.804 197.497,151.138 196.5,143.5C 195.692,143.192 195.025,142.692 194.5,142C 191.667,141.833 188.833,141.667 186,141.5C 182.748,141.519 179.915,142.186 177.5,143.5C 176.566,144.568 176.232,145.901 176.5,147.5C 175.661,145.219 174.661,142.885 173.5,140.5C 174.391,139.41 175.391,139.41 176.5,140.5C 181.781,139.714 187.115,139.214 192.5,139C 193.167,138.667 193.833,138.333 194.5,138C 193.572,137.612 192.905,136.945 192.5,136C 193.573,134.584 193.573,133.25 192.5,132C 193.471,130.519 194.804,129.685 196.5,129.5 Z"/></g>
<g><path style="opacity:1" fill="#80c29f" d="M 177.5,143.5 C 177.5,144.5 177.5,145.5 177.5,146.5C 182.363,146.181 187.03,146.514 191.5,147.5C 186.833,147.5 182.167,147.5 177.5,147.5C 177.167,147.5 176.833,147.5 176.5,147.5C 176.232,145.901 176.566,144.568 177.5,143.5 Z"/></g>
<g><path style="opacity:1" fill="#0c8d4d" d="M 38.5,159.5 C 38.8333,160.167 39.1667,160.833 39.5,161.5C 42.977,162.323 46.6437,162.823 50.5,163C 50.9574,163.414 51.2907,163.914 51.5,164.5C 46.8333,165.833 42.1667,165.833 37.5,164.5C 36.8551,163.354 36.0217,162.354 35,161.5C 33.4137,154.943 33.0804,148.276 34,141.5C 34.8333,140.667 35.6667,139.833 36.5,139C 40.8206,138.501 45.1539,138.334 49.5,138.5C 49.5,139.5 49.5,140.5 49.5,141.5C 45.1578,141.739 40.8244,142.073 36.5,142.5C 35.8833,148.598 36.55,154.265 38.5,159.5 Z"/></g>
<g><path style="opacity:1" fill="#e0fef1" d="M 137.5,147.5 C 137.5,153.833 137.5,160.167 137.5,166.5C 136.51,160.69 136.177,154.69 136.5,148.5C 133.833,148.5 131.167,148.5 128.5,148.5C 128.5,155.167 128.5,161.833 128.5,168.5C 127.07,168.421 125.736,168.754 124.5,169.5C 123.702,169.043 123.369,168.376 123.5,167.5C 124.833,167.5 126.167,167.5 127.5,167.5C 127.5,160.833 127.5,154.167 127.5,147.5C 130.833,147.5 134.167,147.5 137.5,147.5 Z"/></g>
<g><path style="opacity:1" fill="#e0fbee" d="M 147.5,133.5 C 147.5,144.5 147.5,155.5 147.5,166.5C 146.167,166.833 144.833,167.167 143.5,167.5C 143.666,159.826 143.5,152.159 143,144.5C 141.855,143.364 140.688,142.364 139.5,141.5C 135.388,139.977 131.388,140.311 127.5,142.5C 125.735,141.539 123.735,141.205 121.5,141.5C 122.514,140.235 124.014,139.569 126,139.5C 131.152,138.607 136.319,138.44 141.5,139C 142.772,140.307 143.772,141.807 144.5,143.5C 144.896,139.737 145.896,136.403 147.5,133.5 Z"/></g>
<g><path style="opacity:1" fill="#238e53" d="M 153.5,134.5 C 153.183,137.572 153.516,140.572 154.5,143.5C 159.495,140.943 164.495,140.943 169.5,143.5C 169.5,151.167 169.5,158.833 169.5,166.5C 167.5,166.5 165.5,166.5 163.5,166.5C 163.5,160.167 163.5,153.833 163.5,147.5C 163.5,147.167 163.5,146.833 163.5,146.5C 160.167,146.5 156.833,146.5 153.5,146.5C 153.5,153.167 153.5,159.833 153.5,166.5C 151.833,166.5 150.167,166.5 148.5,166.5C 148.5,155.833 148.5,145.167 148.5,134.5C 150.167,134.5 151.833,134.5 153.5,134.5 Z"/></g>
<g><path style="opacity:1" fill="#b0e8cb" d="M 163.5,146.5 C 163.5,146.833 163.5,147.167 163.5,147.5C 160.5,147.5 157.5,147.5 154.5,147.5C 154.5,153.833 154.5,160.167 154.5,166.5C 154.167,166.5 153.833,166.5 153.5,166.5C 153.5,159.833 153.5,153.167 153.5,146.5C 156.833,146.5 160.167,146.5 163.5,146.5 Z"/></g>
<g><path style="opacity:1" fill="#068e4b" d="M 163.5,146.5 C 161.031,145.683 158.365,145.183 155.5,145C 159.131,141.842 162.964,141.675 167,144.5C 168.42,151.05 168.92,157.716 168.5,164.5C 167.5,164.5 166.5,164.5 165.5,164.5C 166.12,158.074 165.453,152.074 163.5,146.5 Z"/></g>
<g><path style="opacity:1" fill="#60aa81" d="M 137.5,147.5 C 134.167,147.5 130.833,147.5 127.5,147.5C 127.5,154.167 127.5,160.833 127.5,167.5C 126.167,167.5 124.833,167.5 123.5,167.5C 122.508,167.672 121.842,167.338 121.5,166.5C 123.167,166.5 124.833,166.5 126.5,166.5C 126.5,159.833 126.5,153.167 126.5,146.5C 130.371,146.185 134.038,146.518 137.5,147.5 Z"/></g>
<g><path style="opacity:1" fill="#49996c" d="M 39.5,137.5 C 43.9707,136.911 47.9707,137.577 51.5,139.5C 51.8333,142.5 50.5,143.833 47.5,143.5C 44.5,143.5 41.5,143.5 38.5,143.5C 38.5,148.833 38.5,154.167 38.5,159.5C 36.55,154.265 35.8833,148.598 36.5,142.5C 40.8244,142.073 45.1578,141.739 49.5,141.5C 49.5,140.5 49.5,139.5 49.5,138.5C 45.1539,138.334 40.8206,138.501 36.5,139C 35.6667,139.833 34.8333,140.667 34,141.5C 33.0804,148.276 33.4137,154.943 35,161.5C 36.0217,162.354 36.8551,163.354 37.5,164.5C 42.1667,165.833 46.8333,165.833 51.5,164.5C 51.2907,163.914 50.9574,163.414 50.5,163C 46.6437,162.823 42.977,162.323 39.5,161.5C 43.8333,161.5 48.1667,161.5 52.5,161.5C 52.5,163.167 52.5,164.833 52.5,166.5C 47.6842,167.65 42.6842,167.816 37.5,167C 35.6487,165.316 33.982,163.483 32.5,161.5C 31.3361,155.193 31.1694,148.859 32,142.5C 33.3296,138.993 35.8296,137.327 39.5,137.5 Z"/></g>
<g><path style="opacity:1" fill="#148b4d" d="M 89.5,141.5 C 89.3691,142.376 89.7025,143.043 90.5,143.5C 95.8193,140.942 101.153,140.942 106.5,143.5C 106.666,150.508 106.5,157.508 106,164.5C 105.25,165.126 104.416,165.626 103.5,166C 99.8484,166.499 96.1817,166.665 92.5,166.5C 92.5,166.167 92.5,165.833 92.5,165.5C 92.5,164.167 92.5,162.833 92.5,161.5C 95.3854,161.806 98.0521,161.473 100.5,160.5C 101.486,156.03 101.819,151.363 101.5,146.5C 97.5,146.5 93.5,146.5 89.5,146.5C 89.5,158.167 89.5,169.833 89.5,181.5C 86.9179,181.975 84.9179,181.308 83.5,179.5C 84.4954,167.011 84.8287,154.344 84.5,141.5C 86.1667,141.5 87.8333,141.5 89.5,141.5 Z"/></g>
<g><path style="opacity:1" fill="#c3e8d4" d="M 169.5,143.5 C 170.167,149.014 170.833,154.681 171.5,160.5C 172.66,158.125 173.66,155.792 174.5,153.5C 174.054,158.071 174.72,162.404 176.5,166.5C 174.797,167.66 174.131,166.993 174.5,164.5C 173.209,164.263 172.209,164.596 171.5,165.5C 171.5,166.167 171.167,166.5 170.5,166.5C 170.167,166.5 169.833,166.5 169.5,166.5C 169.5,158.833 169.5,151.167 169.5,143.5 Z"/></g>
<g><path style="opacity:1" fill="#c1ead4" d="M 56.5,154.5 C 55.7688,159.073 56.7688,163.073 59.5,166.5C 58.8333,166.5 58.1667,166.5 57.5,166.5C 55.9991,164.043 54.3324,164.043 52.5,166.5C 52.5,164.833 52.5,163.167 52.5,161.5C 53.5,161.5 54.5,161.5 55.5,161.5C 55.1984,158.941 55.5318,156.607 56.5,154.5 Z"/></g>
<g><path style="opacity:1" fill="#1c8c50" d="M 75.5,141.5 C 76.6883,142.364 77.8549,143.364 79,144.5C 79.4997,151.826 79.6663,159.159 79.5,166.5C 72.9233,166.041 66.2566,166.041 59.5,166.5C 56.7688,163.073 55.7688,159.073 56.5,154.5C 56.5,154.167 56.5,153.833 56.5,153.5C 56.8333,153.5 57.1667,153.5 57.5,153.5C 61.0991,152.656 64.7657,152.323 68.5,152.5C 68.5,153.5 68.5,154.5 68.5,155.5C 65.9179,155.025 63.9179,155.692 62.5,157.5C 62.5,158.833 62.5,160.167 62.5,161.5C 66.1667,161.5 69.8333,161.5 73.5,161.5C 73.5,156.833 73.5,152.167 73.5,147.5C 68.5792,147.138 63.9126,146.138 59.5,144.5C 59.5,144.167 59.5,143.833 59.5,143.5C 64.5318,141.63 69.8652,140.963 75.5,141.5 Z"/></g>
<g><path style="opacity:1" fill="#bbedd3" d="M 100.5,160.5 C 98.0521,161.473 95.3854,161.806 92.5,161.5C 92.5,162.833 92.5,164.167 92.5,165.5C 91.7784,165.082 91.2784,164.416 91,163.5C 90.8276,169.681 90.3276,175.681 89.5,181.5C 89.5,169.833 89.5,158.167 89.5,146.5C 93.5,146.5 97.5,146.5 101.5,146.5C 101.819,151.363 101.486,156.03 100.5,160.5 Z"/></g>
<g><path style="opacity:1" fill="#f4fdf8" d="M 100.5,160.5 C 97.1667,160.5 93.8333,160.5 90.5,160.5C 90.5,156.5 90.5,152.5 90.5,148.5C 93.8333,148.5 97.1667,148.5 100.5,148.5C 100.5,152.5 100.5,156.5 100.5,160.5 Z"/></g>
<g><path style="opacity:1" fill="#9cd1b2" d="M 106.5,143.5 C 107.491,150.313 107.825,157.313 107.5,164.5C 106.942,165.79 105.942,166.623 104.5,167C 100.311,167.812 96.3112,167.645 92.5,166.5C 96.1817,166.665 99.8484,166.499 103.5,166C 104.416,165.626 105.25,165.126 106,164.5C 106.5,157.508 106.666,150.508 106.5,143.5 Z"/></g>
<g><path style="opacity:1" fill="#f8f9fb" d="M 137.5,166.5 C 139.265,167.461 141.265,167.795 143.5,167.5C 144.833,167.167 146.167,166.833 147.5,166.5C 149.5,167.833 151.5,167.833 153.5,166.5C 153.833,166.5 154.167,166.5 154.5,166.5C 155.659,167.456 156.826,168.456 158,169.5C 159.763,169.025 161.43,168.358 163,167.5C 165.228,169.113 167.728,169.78 170.5,169.5C 170.5,168.5 170.5,167.5 170.5,166.5C 171.167,166.5 171.5,166.167 171.5,165.5C 172.649,165.791 173.316,166.624 173.5,168C 172.178,173.583 173.178,173.75 176.5,168.5C 176.833,168.667 177.167,168.833 177.5,169C 178.028,172.018 179.028,174.851 180.5,177.5C 180.069,174.968 180.902,172.634 183,170.5C 183.513,171.527 184.013,172.527 184.5,173.5C 184.5,173.833 184.5,174.167 184.5,174.5C 184.5,178.167 184.5,181.833 184.5,185.5C 189.363,185.819 194.03,185.486 198.5,184.5C 200.042,183.699 201.708,183.366 203.5,183.5C 202.5,184.167 201.5,184.833 200.5,185.5C 200.167,186.167 199.833,186.833 199.5,187.5C 198.566,188.568 198.232,189.901 198.5,191.5C 195.687,191.025 193.687,192.025 192.5,194.5C 191.26,195.659 189.926,196.659 188.5,197.5C 184.543,199.86 184.543,202.36 188.5,205C 190.134,205.494 191.801,205.66 193.5,205.5C 192.048,206.302 190.382,206.802 188.5,207C 187.809,208.067 187.309,209.234 187,210.5C 184.821,211.116 182.988,212.283 181.5,214C 181.833,214.333 182.167,214.667 182.5,215C 180.934,215.765 179.601,215.598 178.5,214.5C 179.376,214.631 180.043,214.298 180.5,213.5C 177.979,210.622 174.979,208.622 171.5,207.5C 172.068,210.588 172.068,213.588 171.5,216.5C 169.717,214.977 169.051,212.977 169.5,210.5C 167.139,210.674 164.806,211.007 162.5,211.5C 162.983,214.658 163.983,217.658 165.5,220.5C 164.733,221.172 164.066,222.005 163.5,223C 161.658,222.932 159.991,223.099 158.5,223.5C 159.911,226.324 159.745,228.99 158,231.5C 157.383,230.551 157.549,229.718 158.5,229C 157.338,228.173 156.171,227.34 155,226.5C 152.044,228.061 148.877,229.061 145.5,229.5C 145.217,230.289 144.717,230.956 144,231.5C 142.482,230.837 141.315,229.837 140.5,228.5C 141.376,228.631 142.043,228.298 142.5,227.5C 140.833,226.833 139.167,226.167 137.5,225.5C 142.73,224.075 142.73,222.909 137.5,222C 139.044,221.71 140.377,221.044 141.5,220C 140.027,219.29 139.36,218.124 139.5,216.5C 137.089,216.137 135.589,217.137 135,219.5C 134.956,222.475 135.123,225.475 135.5,228.5C 136.5,228.5 137.5,228.5 138.5,228.5C 135.387,231.885 132.054,232.218 128.5,229.5C 125.599,231.403 122.599,231.403 119.5,229.5C 125.854,229.395 127.187,226.561 123.5,221C 121.934,220.235 120.601,220.402 119.5,221.5C 117.666,220.506 115.999,220.506 114.5,221.5C 114.108,223.179 113.608,224.846 113,226.5C 112.457,224.369 111.624,222.369 110.5,220.5C 110.167,221 109.833,221.5 109.5,222C 110.249,224.497 110.916,226.997 111.5,229.5C 109.926,229.063 108.759,228.063 108,226.5C 107.667,228.167 107.333,229.833 107,231.5C 106.333,228.833 105.667,228.833 105,231.5C 104.487,230.473 103.987,229.473 103.5,228.5C 101.813,229.867 100.147,230.867 98.5,231.5C 97.8333,230.5 97.1667,229.5 96.5,228.5C 95.2888,229.274 95.2888,230.107 96.5,231C 92.8009,231.334 89.3009,231.501 86,231.5C 84.3822,222.305 83.3822,222.305 83,231.5C 82.3333,226.167 81.6667,226.167 81,231.5C 80.3333,229.5 80.3333,227.5 81,225.5C 81.3333,225.833 81.6667,226.167 82,226.5C 82.4828,225.552 82.6495,224.552 82.5,223.5C 83.5676,222.566 84.901,222.232 86.5,222.5C 86.281,223.675 86.6143,224.675 87.5,225.5C 87.8333,224.833 88.1667,224.167 88.5,223.5C 88.0356,220.651 87.3689,217.984 86.5,215.5C 87.6785,213.493 87.1785,213.16 85,214.5C 84.8333,214 84.6667,213.5 84.5,213C 85.3839,211.902 86.3839,211.402 87.5,211.5C 86.3349,210.416 85.0016,209.583 83.5,209C 85.5951,208.444 85.7618,207.944 84,207.5C 82.662,208.506 81.3287,209.506 80,210.5C 77.2498,208.282 74.0832,206.949 70.5,206.5C 68.4148,205.459 66.7481,203.959 65.5,202C 63.524,201.812 61.524,201.979 59.5,202.5C 57.8857,202.197 56.5523,201.53 55.5,200.5C 55.0269,199.094 54.0269,198.427 52.5,198.5C 51.5,197.5 50.5,196.5 49.5,195.5C 47.9557,195.703 46.6223,196.37 45.5,197.5C 45.433,195.576 45.0997,193.576 44.5,191.5C 42.6353,194.226 41.6353,197.226 41.5,200.5C 40.5526,198.545 39.2193,198.211 37.5,199.5C 35.556,198.811 33.556,198.311 31.5,198C 32.5,197.667 33.5,197.333 34.5,197C 31.715,196.274 31.0484,194.774 32.5,192.5C 33.7777,192.782 34.7777,193.449 35.5,194.5C 38.2901,192.72 40.2901,190.387 41.5,187.5C 42.3764,187.631 43.0431,187.298 43.5,186.5C 42.1697,183.151 42.6697,182.818 45,185.5C 45.677,183.311 46.8437,182.978 48.5,184.5C 49.1671,180.687 49.8337,177.021 50.5,173.5C 49.7375,172.732 48.7375,172.232 47.5,172C 50.6149,171.448 52.9482,169.781 54.5,167C 55.448,166.517 56.448,166.351 57.5,166.5C 58.1667,166.5 58.8333,166.5 59.5,166.5C 64.5712,169.672 70.0712,170.339 76,168.5C 78.2953,168.547 80.1286,169.213 81.5,170.5C 79.712,170.215 78.0453,170.548 76.5,171.5C 77.1175,176.299 77.7841,180.966 78.5,185.5C 80.4136,182.316 81.0803,178.649 80.5,174.5C 80.2627,173.209 80.596,172.209 81.5,171.5C 81.3946,175.548 81.7279,179.548 82.5,183.5C 84.2624,183.357 85.9291,183.691 87.5,184.5C 88.4252,183.643 89.0919,182.643 89.5,181.5C 90.3276,175.681 90.8276,169.681 91,163.5C 91.2784,164.416 91.7784,165.082 92.5,165.5C 92.5,165.833 92.5,166.167 92.5,166.5C 96.3112,167.645 100.311,167.812 104.5,167C 105.942,166.623 106.942,165.79 107.5,164.5C 108.833,164.5 110.167,164.5 111.5,164.5C 111.5,165.167 111.5,165.833 111.5,166.5C 113.5,167.833 115.5,167.833 117.5,166.5C 118.833,166.5 120.167,166.5 121.5,166.5C 121.842,167.338 122.508,167.672 123.5,167.5C 123.369,168.376 123.702,169.043 124.5,169.5C 125.736,168.754 127.07,168.421 128.5,168.5C 128.5,161.833 128.5,155.167 128.5,148.5C 131.167,148.5 133.833,148.5 136.5,148.5C 136.177,154.69 136.51,160.69 137.5,166.5 Z"/></g>
<g><path style="opacity:1" fill="#7f809e" d="M 107.5,175.5 C 102.5,174.167 97.5,174.167 92.5,175.5C 94.5706,174.191 97.0706,173.525 100,173.5C 102.929,173.525 105.429,174.191 107.5,175.5 Z"/></g>
<g><path style="opacity:1" fill="#7d7a9d" d="M 148.5,174.5 C 143.305,174.179 138.305,174.513 133.5,175.5C 132.957,175.44 132.624,175.107 132.5,174.5C 137.986,173.185 143.32,173.185 148.5,174.5 Z"/></g>
<g><path style="opacity:1" fill="#ebebf4" d="M 22.5,170.5 C 19.6152,173.615 19.9485,176.281 23.5,178.5C 24.1667,178.167 24.8333,177.833 25.5,177.5C 24.675,176.614 23.675,176.281 22.5,176.5C 22.3838,173.09 24.0504,171.756 27.5,172.5C 28.1667,176.5 28.8333,176.5 29.5,172.5C 30.6448,171.207 30.3115,170.041 28.5,169C 29.448,168.517 30.448,168.351 31.5,168.5C 31.7683,171.119 31.435,173.619 30.5,176C 32.4247,175.865 34.4247,175.698 36.5,175.5C 36.6713,178.797 36.0046,179.131 34.5,176.5C 33.8933,176.624 33.56,176.957 33.5,177.5C 28.164,176.185 25.4974,178.185 25.5,183.5C 23.9379,181.778 21.6046,180.111 18.5,178.5C 17.0302,176.518 17.3636,174.852 19.5,173.5C 17.033,171.714 17.1996,170.048 20,168.5C 21.7618,168.944 21.5951,169.444 19.5,170C 20.448,170.483 21.448,170.649 22.5,170.5 Z"/></g>
<g><path style="opacity:1" fill="#565567" d="M 22.5,170.5 C 24.5273,170.338 26.5273,170.505 28.5,171C 29.056,171.383 29.3893,171.883 29.5,172.5C 28.8333,176.5 28.1667,176.5 27.5,172.5C 24.0504,171.756 22.3838,173.09 22.5,176.5C 23.675,176.281 24.675,176.614 25.5,177.5C 24.8333,177.833 24.1667,178.167 23.5,178.5C 19.9485,176.281 19.6152,173.615 22.5,170.5 Z"/></g>
<g><path style="opacity:1" fill="#424061" d="M 50.5,173.5 C 55.1785,173.334 59.8452,173.501 64.5,174C 67.1667,177.667 67.1667,181.333 64.5,185C 59.8452,185.499 55.1785,185.666 50.5,185.5C 50.5,181.5 50.5,177.5 50.5,173.5 Z"/></g>
<g><path style="opacity:1" fill="#3f3b61" d="M 133.5,175.5 C 138.305,174.513 143.305,174.179 148.5,174.5C 148.5,174.833 148.5,175.167 148.5,175.5C 146.167,175.5 143.833,175.5 141.5,175.5C 141.5,178.833 141.5,182.167 141.5,185.5C 139.598,182.663 138.931,179.329 139.5,175.5C 137.5,175.5 135.5,175.5 133.5,175.5 Z"/></g>
<g><path style="opacity:1" fill="#a29fbb" d="M 52.5,176.5 C 56.2984,175.517 60.2984,175.183 64.5,175.5C 64.8064,178.385 64.4731,181.052 63.5,183.5C 63.5,181.167 63.5,178.833 63.5,176.5C 59.8333,176.5 56.1667,176.5 52.5,176.5 Z"/></g>
<g><path style="opacity:1" fill="#9c99b5" d="M 81.5,170.5 C 81.5,170.833 81.5,171.167 81.5,171.5C 80.596,172.209 80.2627,173.209 80.5,174.5C 78.5864,177.684 77.9197,181.351 78.5,185.5C 77.7841,180.966 77.1175,176.299 76.5,171.5C 78.0453,170.548 79.712,170.215 81.5,170.5 Z"/></g>
<g><path style="opacity:1" fill="#87859f" d="M 184.5,174.5 C 184.5,174.167 184.5,173.833 184.5,173.5C 185.5,173.5 186.5,173.5 187.5,173.5C 187.5,176.833 187.5,180.167 187.5,183.5C 187.11,180.203 186.11,177.203 184.5,174.5 Z"/></g>
<g><path style="opacity:1" fill="#3c3856" d="M 80.5,174.5 C 81.0803,178.649 80.4136,182.316 78.5,185.5C 77.9197,181.351 78.5864,177.684 80.5,174.5 Z"/></g>
<g><path style="opacity:1" fill="#aeaac7" d="M 105.5,177.5 C 106.5,177.5 107.5,177.5 108.5,177.5C 108.5,178.167 108.5,178.833 108.5,179.5C 105.302,178.964 102.635,179.631 100.5,181.5C 99.596,180.791 99.2627,179.791 99.5,178.5C 101.735,178.795 103.735,178.461 105.5,177.5 Z"/></g>
<g><path style="opacity:1" fill="#8986a3" d="M 148.5,175.5 C 146.735,176.461 144.735,176.795 142.5,176.5C 142.81,179.713 142.477,182.713 141.5,185.5C 141.5,182.167 141.5,178.833 141.5,175.5C 143.833,175.5 146.167,175.5 148.5,175.5 Z"/></g>
<g><path style="opacity:1" fill="#f5f7fc" d="M 52.5,176.5 C 56.1667,176.5 59.8333,176.5 63.5,176.5C 63.5,178.833 63.5,181.167 63.5,183.5C 59.8333,183.5 56.1667,183.5 52.5,183.5C 52.5,181.167 52.5,178.833 52.5,176.5 Z"/></g>
<g><path style="opacity:1" fill="#bbb8d0" d="M 212.5,181.5 C 210.418,181.472 208.584,182.139 207,183.5C 206.552,181.591 207.385,180.424 209.5,180C 208.552,179.517 207.552,179.351 206.5,179.5C 208.627,178.905 209.793,177.905 210,176.5C 212.441,177.635 214.608,179.135 216.5,181C 216.167,181.5 215.833,182 215.5,182.5C 214.833,181.833 214.167,181.167 213.5,180.5C 212.893,180.624 212.56,180.957 212.5,181.5 Z"/></g>
<g><path style="opacity:1" fill="#696681" d="M 119.5,170.5 C 120.5,170.5 121.5,170.5 122.5,170.5C 122.5,175.5 122.5,180.5 122.5,185.5C 121.5,185.5 120.5,185.5 119.5,185.5C 119.5,180.5 119.5,175.5 119.5,170.5 Z"/></g>
<g><path style="opacity:1" fill="#535077" d="M 163.5,174.5 C 167.763,176.763 171.096,180.096 173.5,184.5C 173,184.833 172.5,185.167 172,185.5C 169.825,184.375 167.491,183.708 165,183.5C 161.612,183.586 158.445,184.086 155.5,185C 158.054,181.38 160.721,177.88 163.5,174.5 Z"/></g>
<g><path style="opacity:1" fill="#d6d5ed" d="M 163.5,177.5 C 164.5,177.5 165.5,177.5 166.5,177.5C 166.5,178.5 166.5,179.5 166.5,180.5C 163.433,180.879 162.433,179.879 163.5,177.5 Z"/></g>
<g><path style="opacity:1" fill="#e8e8f3" d="M 105.5,177.5 C 103.735,178.461 101.735,178.795 99.5,178.5C 99.2627,179.791 99.596,180.791 100.5,181.5C 102.288,181.215 103.955,181.548 105.5,182.5C 101.893,183.489 98.226,183.823 94.5,183.5C 94.5,180.833 94.5,178.167 94.5,175.5C 98.649,174.92 102.316,175.586 105.5,177.5 Z"/></g>
<g><path style="opacity:1" fill="#4a476b" d="M 107.5,175.5 C 108.338,175.842 108.672,176.508 108.5,177.5C 107.5,177.5 106.5,177.5 105.5,177.5C 102.316,175.586 98.649,174.92 94.5,175.5C 94.5,178.167 94.5,180.833 94.5,183.5C 98.226,183.823 101.893,183.489 105.5,182.5C 103.955,181.548 102.288,181.215 100.5,181.5C 102.635,179.631 105.302,178.964 108.5,179.5C 108.822,181.722 108.155,183.556 106.5,185C 102.167,185.667 97.8333,185.667 93.5,185C 91.3065,181.962 90.9732,178.796 92.5,175.5C 97.5,174.167 102.5,174.167 107.5,175.5 Z"/></g>
<g><path style="opacity:1" fill="#484566" d="M 206.5,179.5 C 207.552,179.351 208.552,179.517 209.5,180C 207.385,180.424 206.552,181.591 207,183.5C 208.584,182.139 210.418,181.472 212.5,181.5C 213.808,183.638 213.475,185.638 211.5,187.5C 207.665,186.996 207.665,185.996 211.5,184.5C 211.167,184.167 210.833,183.833 210.5,183.5C 208.591,184.348 206.591,184.682 204.5,184.5C 204.5,183.5 204.5,182.5 204.5,181.5C 204.833,180.5 205.5,179.833 206.5,179.5 Z"/></g>
<g><path style="opacity:1" fill="#444062" d="M 184.5,174.5 C 186.11,177.203 187.11,180.203 187.5,183.5C 191.371,183.185 195.038,183.518 198.5,184.5C 194.03,185.486 189.363,185.819 184.5,185.5C 184.5,181.833 184.5,178.167 184.5,174.5 Z"/></g>
<g><path style="opacity:1" fill="#cac7e2" d="M 204.5,181.5 C 204.5,182.5 204.5,183.5 204.5,184.5C 206.591,184.682 208.591,184.348 210.5,183.5C 210.833,183.833 211.167,184.167 211.5,184.5C 207.665,185.996 207.665,186.996 211.5,187.5C 210.791,188.404 209.791,188.737 208.5,188.5C 208.737,189.791 208.404,190.791 207.5,191.5C 207.673,186.677 205.339,184.677 200.5,185.5C 201.5,184.833 202.5,184.167 203.5,183.5C 203.328,182.508 203.662,181.842 204.5,181.5 Z"/></g>
<g><path style="opacity:1" fill="#514c71" d="M 33.5,177.5 C 34.3414,179.379 34.6747,181.379 34.5,183.5C 35.9778,183.238 37.3112,183.571 38.5,184.5C 37.1666,185.62 36.6666,186.953 37,188.5C 38.3561,187.62 39.8561,187.286 41.5,187.5C 40.2901,190.387 38.2901,192.72 35.5,194.5C 35.5106,192.983 36.1772,191.816 37.5,191C 35.8925,191.019 34.2259,191.185 32.5,191.5C 33.0283,190.279 33.695,189.113 34.5,188C 33.0039,187.493 31.8373,187.993 31,189.5C 30.8333,189.167 30.6667,188.833 30.5,188.5C 32.0148,187.409 32.8481,186.076 33,184.5C 30.2565,185.917 27.7565,185.584 25.5,183.5C 25.4974,178.185 28.164,176.185 33.5,177.5 Z"/></g>
<g><path style="opacity:1" fill="#eae8f6" d="M 28.5,179.5 C 29.8333,179.5 31.1667,179.5 32.5,179.5C 32.756,181.912 31.756,183.579 29.5,184.5C 27.2957,183.218 26.9624,181.551 28.5,179.5 Z"/></g>
<g><path style="opacity:1" fill="#8e8dab" d="M 199.5,187.5 C 199.167,191.833 201.167,193.833 205.5,193.5C 204.432,194.434 203.099,194.768 201.5,194.5C 201.768,196.099 201.434,197.432 200.5,198.5C 200.834,195.812 200.168,193.479 198.5,191.5C 198.232,189.901 198.566,188.568 199.5,187.5 Z"/></g>
<g><path style="opacity:1" fill="#4a466c" d="M 200.5,185.5 C 205.339,184.677 207.673,186.677 207.5,191.5C 207.167,192.5 206.5,193.167 205.5,193.5C 201.167,193.833 199.167,191.833 199.5,187.5C 199.833,186.833 200.167,186.167 200.5,185.5 Z"/></g>
<g><path style="opacity:1" fill="#e5e3f2" d="M 201.5,187.5 C 202.833,187.5 204.167,187.5 205.5,187.5C 205.5,189.167 205.5,190.833 205.5,192.5C 201.745,192.437 200.412,190.77 201.5,187.5 Z"/></g>
<g><path style="opacity:1" fill="#a8a4c4" d="M 35.5,194.5 C 34.7777,193.449 33.7777,192.782 32.5,192.5C 32.5,192.167 32.5,191.833 32.5,191.5C 34.2259,191.185 35.8925,191.019 37.5,191C 36.1772,191.816 35.5106,192.983 35.5,194.5 Z"/></g>
<g><path style="opacity:1" fill="#494967" d="M 198.5,191.5 C 200.168,193.479 200.834,195.812 200.5,198.5C 200.167,199.5 199.5,200.167 198.5,200.5C 195.5,199.5 193.5,197.5 192.5,194.5C 193.687,192.025 195.687,191.025 198.5,191.5 Z"/></g>
<g><path style="opacity:1" fill="#dedef3" d="M 195.5,193.5 C 198.297,193.967 199.631,195.633 199.5,198.5C 195.745,198.437 194.412,196.77 195.5,193.5 Z"/></g>
<g><path style="opacity:1" fill="#504c6d" d="M 49.5,195.5 C 48.1879,197.479 46.5212,199.145 44.5,200.5C 43.5,200.5 42.5,200.5 41.5,200.5C 41.6353,197.226 42.6353,194.226 44.5,191.5C 45.0997,193.576 45.433,195.576 45.5,197.5C 46.6223,196.37 47.9557,195.703 49.5,195.5 Z"/></g>
<g><path style="opacity:1" fill="#b5b2cc" d="M 49.5,195.5 C 50.5,196.5 51.5,197.5 52.5,198.5C 48.5541,198.488 46.8874,200.488 47.5,204.5C 46.9779,202.781 45.9779,201.448 44.5,200.5C 46.5212,199.145 48.1879,197.479 49.5,195.5 Z"/></g>
<g><path style="opacity:1" fill="#504c6e" d="M 52.5,198.5 C 54.0269,198.427 55.0269,199.094 55.5,200.5C 55.6728,205.323 53.3394,207.323 48.5,206.5C 48.1667,205.833 47.8333,205.167 47.5,204.5C 46.8874,200.488 48.5541,198.488 52.5,198.5 Z"/></g>
<g><path style="opacity:1" fill="#e3e0f2" d="M 50.5,199.5 C 53.0764,199.722 53.9098,201.055 53,203.5C 51.6439,204.38 50.1439,204.714 48.5,204.5C 48.3915,202.486 49.0582,200.82 50.5,199.5 Z"/></g>
<g><path style="opacity:1" fill="#4e4c69" d="M 188.5,197.5 C 192.833,197.167 194.833,199.167 194.5,203.5C 194.167,204.167 193.833,204.833 193.5,205.5C 191.801,205.66 190.134,205.494 188.5,205C 184.543,202.36 184.543,199.86 188.5,197.5 Z"/></g>
<g><path style="opacity:1" fill="#b3b3ce" d="M 192.5,194.5 C 193.5,197.5 195.5,199.5 198.5,200.5C 197.074,201.341 195.74,202.341 194.5,203.5C 194.833,199.167 192.833,197.167 188.5,197.5C 189.926,196.659 191.26,195.659 192.5,194.5 Z"/></g>
<g><path style="opacity:1" fill="#e4e2f3" d="M 188.5,198.5 C 191.91,198.384 193.244,200.05 192.5,203.5C 188.065,204.078 186.732,202.411 188.5,198.5 Z"/></g>
<g><path style="opacity:1" fill="#595672" d="M 183.5,200.5 C 184.653,201.313 184.653,202.313 183.5,203.5C 184.248,205.332 185.248,206.999 186.5,208.5C 186.167,208.833 185.833,209.167 185.5,209.5C 184.155,208.653 183.155,207.487 182.5,206C 181.062,205.781 179.729,205.281 178.5,204.5C 180.21,203.113 181.877,201.779 183.5,200.5 Z"/></g>
<g><path style="opacity:1" fill="#595672" d="M 63.5,207.5 C 61.7163,206.107 59.7163,205.607 57.5,206C 56.6634,207.011 56.33,208.178 56.5,209.5C 57.9778,209.238 59.3112,209.571 60.5,210.5C 58.4844,211.694 56.4844,211.694 54.5,210.5C 54.3794,205.519 56.7127,203.353 61.5,204C 62.8228,204.816 63.4894,205.983 63.5,207.5 Z"/></g>
<g><path style="opacity:1" fill="#eaeaf2" d="M 55.5,200.5 C 56.5523,201.53 57.8857,202.197 59.5,202.5C 61.524,201.979 63.524,201.812 65.5,202C 66.7481,203.959 68.4148,205.459 70.5,206.5C 74.0832,206.949 77.2498,208.282 80,210.5C 81.3287,209.506 82.662,208.506 84,207.5C 85.7618,207.944 85.5951,208.444 83.5,209C 85.0016,209.583 86.3349,210.416 87.5,211.5C 86.3839,211.402 85.3839,211.902 84.5,213C 84.6667,213.5 84.8333,214 85,214.5C 87.1785,213.16 87.6785,213.493 86.5,215.5C 84.016,217.8 82.016,220.467 80.5,223.5C 78.5266,223.473 76.5266,223.473 74.5,223.5C 74.6778,222.044 73.8445,220.711 72,219.5C 71.2303,220.598 70.397,220.598 69.5,219.5C 70.9143,217.402 70.2476,216.402 67.5,216.5C 66.2347,215.521 64.9014,214.521 63.5,213.5C 65.216,213.003 66.8827,212.669 68.5,212.5C 67.5,211.667 66.5,210.833 65.5,210C 72.0849,210.327 72.0849,209.16 65.5,206.5C 64.8165,206.863 64.1499,207.196 63.5,207.5C 63.4894,205.983 62.8228,204.816 61.5,204C 56.7127,203.353 54.3794,205.519 54.5,210.5C 53.596,209.791 53.2627,208.791 53.5,207.5C 51.5853,207.784 49.9187,207.451 48.5,206.5C 53.3394,207.323 55.6728,205.323 55.5,200.5 Z"/></g>
<g><path style="opacity:1" fill="#514d6f" d="M 67.5,216.5 C 61.1661,215.847 59.8328,212.847 63.5,207.5C 64.1499,207.196 64.8165,206.863 65.5,206.5C 72.0849,209.16 72.0849,210.327 65.5,210C 66.5,210.833 67.5,211.667 68.5,212.5C 66.8827,212.669 65.216,213.003 63.5,213.5C 64.9014,214.521 66.2347,215.521 67.5,216.5 Z"/></g>
<g><path style="opacity:1" fill="#535072" d="M 76.5,212.5 C 82.6298,212.785 83.7965,215.118 80,219.5C 78.2493,218.191 76.7493,218.525 75.5,220.5C 75.1667,220 74.8333,219.5 74.5,219C 75.6094,216.953 76.2761,214.787 76.5,212.5 Z"/></g>
<g><path style="opacity:1" fill="#eae6f9" d="M 78.5,214.5 C 80.0847,215.002 80.5847,216.002 80,217.5C 78.9614,216.756 78.4614,215.756 78.5,214.5 Z"/></g>
<g><path style="opacity:1" fill="#5a5579" d="M 158.5,223.5 C 156.612,221.012 155.945,218.012 156.5,214.5C 160.012,215.005 162.345,217.005 163.5,220.5C 161.345,221.001 159.678,222.001 158.5,223.5 Z"/></g>
<g><path style="opacity:1" fill="#595576" d="M 178.5,214.5 C 177.749,213.427 176.749,213.26 175.5,214C 173.777,218.686 170.944,219.519 167,216.5C 166.508,217.549 166.674,218.549 167.5,219.5C 167.043,220.298 166.376,220.631 165.5,220.5C 163.983,217.658 162.983,214.658 162.5,211.5C 164.806,211.007 167.139,210.674 169.5,210.5C 169.051,212.977 169.717,214.977 171.5,216.5C 172.068,213.588 172.068,210.588 171.5,207.5C 174.979,208.622 177.979,210.622 180.5,213.5C 180.043,214.298 179.376,214.631 178.5,214.5 Z"/></g>
<g><path style="opacity:1" fill="#eae3f8" d="M 165.5,212.5 C 167.337,212.639 167.67,213.306 166.5,214.5C 165.702,214.043 165.369,213.376 165.5,212.5 Z"/></g>
<g><path style="opacity:1" fill="#8a889b" d="M 67.5,216.5 C 70.2476,216.402 70.9143,217.402 69.5,219.5C 67.9519,219.179 67.2852,218.179 67.5,216.5 Z"/></g>
<g><path style="opacity:1" fill="#4e4d6e" d="M 86.5,215.5 C 87.3689,217.984 88.0356,220.651 88.5,223.5C 88.1667,224.167 87.8333,224.833 87.5,225.5C 86.6143,224.675 86.281,223.675 86.5,222.5C 84.901,222.232 83.5676,222.566 82.5,223.5C 81.8333,223.5 81.1667,223.5 80.5,223.5C 82.016,220.467 84.016,217.8 86.5,215.5 Z"/></g>
<g><path style="opacity:1" fill="#4a4665" d="M 149.5,216.5 C 151.199,216.34 152.866,216.506 154.5,217C 155.022,217.561 155.355,218.228 155.5,219C 153.366,220.673 151.866,222.84 151,225.5C 149.069,222.603 148.569,219.603 149.5,216.5 Z"/></g>
<g><path style="opacity:1" fill="#dbd5f2" d="M 150.5,218.5 C 151.675,218.281 152.675,218.614 153.5,219.5C 151.948,220.798 150.948,220.465 150.5,218.5 Z"/></g>
<g><path style="opacity:1" fill="#555170" d="M 119.5,229.5 C 118.833,229.167 118.167,228.833 117.5,228.5C 117.166,225.812 117.832,223.479 119.5,221.5C 120.601,220.402 121.934,220.235 123.5,221C 127.187,226.561 125.854,229.395 119.5,229.5 Z"/></g>
<g><path style="opacity:1" fill="#6e6a87" d="M 140.5,228.5 C 139.833,228.5 139.167,228.5 138.5,228.5C 137.5,228.5 136.5,228.5 135.5,228.5C 135.123,225.475 134.956,222.475 135,219.5C 135.589,217.137 137.089,216.137 139.5,216.5C 139.36,218.124 140.027,219.29 141.5,220C 140.377,221.044 139.044,221.71 137.5,222C 142.73,222.909 142.73,224.075 137.5,225.5C 139.167,226.167 140.833,226.833 142.5,227.5C 142.043,228.298 141.376,228.631 140.5,228.5 Z"/></g>
<g><path style="opacity:1" fill="#4e4b6c" d="M 103.5,228.5 C 103.38,227.414 102.713,226.747 101.5,226.5C 99.2178,227.223 96.8845,227.557 94.5,227.5C 94.4804,223.487 93.147,222.82 90.5,225.5C 90.1667,225 89.8333,224.5 89.5,224C 90.2865,221.901 90.6199,219.734 90.5,217.5C 92.861,217.674 95.1944,218.007 97.5,218.5C 97.822,220.722 97.1554,222.556 95.5,224C 96.1258,224.75 96.6258,225.584 97,226.5C 98.2515,224.999 99.2515,223.332 100,221.5C 100.837,219.993 102.004,219.493 103.5,220C 104.218,222.461 104.885,224.961 105.5,227.5C 105.043,228.298 104.376,228.631 103.5,228.5 Z"/></g>
<g><path style="opacity:1" fill="#e4e2f8" d="M 92.5,219.5 C 93.675,219.281 94.675,219.614 95.5,220.5C 93.9483,221.798 92.9483,221.465 92.5,219.5 Z"/></g>
<g><path style="opacity:1" fill="#bdbad9" d="M 114.5,221.5 C 115.999,220.506 117.666,220.506 119.5,221.5C 117.832,223.479 117.166,225.812 117.5,228.5C 116.833,227.5 116.167,226.5 115.5,225.5C 115.539,224.417 115.873,223.417 116.5,222.5C 116.043,221.702 115.376,221.369 114.5,221.5 Z"/></g>
<g><path style="opacity:1" fill="#eeecfa" d="M 120.5,222.5 C 122.484,222.484 123.484,223.484 123.5,225.5C 122.167,229.5 120.833,229.5 119.5,225.5C 119.685,224.416 120.018,223.416 120.5,222.5 Z"/></g>
<g><path style="opacity:1" fill="#605f6e" d="M 145.5,229.5 C 143.912,228.365 143.579,227.031 144.5,225.5C 145.429,226.689 145.762,228.022 145.5,229.5 Z"/></g>
<g><path style="opacity:1" fill="#55526f" d="M 114.5,221.5 C 115.376,221.369 116.043,221.702 116.5,222.5C 115.873,223.417 115.539,224.417 115.5,225.5C 114.766,226.708 114.433,228.041 114.5,229.5C 113.5,229.5 112.5,229.5 111.5,229.5C 110.916,226.997 110.249,224.497 109.5,222C 109.833,221.5 110.167,221 110.5,220.5C 111.624,222.369 112.457,224.369 113,226.5C 113.608,224.846 114.108,223.179 114.5,221.5 Z"/></g>
<g><path style="opacity:1" fill="#55526d" d="M 128.5,229.5 C 125.477,225.792 125.977,222.792 130,220.5C 131.662,220.388 132.829,221.054 133.5,222.5C 131.997,223.052 130.331,223.052 128.5,222.5C 128.5,224.167 128.5,225.833 128.5,227.5C 130.331,226.948 131.997,226.948 133.5,227.5C 132.332,229.217 130.665,229.884 128.5,229.5 Z"/></g>
</svg>
